PathFileType	4	(X/Y/Z)	c:/Users/goper/Files/vsCode/490R/osim_files/A04/A04_Fast_03.trc
DataRate	CameraRate	NumFrames	NumMarkers	Units                	OrigDataRate	OrigDataStartFrame	OrigNumFrames
120.00	120.00	5	36	mm	120.0	917	1467
                Frame#	Time	LPSIS			LASIS			LTH1			LTH2			LTH3			LTH4			LLFE			LMFE			LSH1			LSH2			LSH3			LSH4			LLMAL			LMMAL			LCAL			LMTP5			LTOE			LMTP1			RPSIS			RASIS			RTH1			RTH2			RTH3			RTH4			RLFE			RMFE			RSH1			RSH2			RSH3			RSH4			RLMAL			RMMAL			RCAL			RMTP1			RTOE			RMTP5		
		X1	Y1	Z1	X2	Y2	Z2	X3	Y3	Z3	X4	Y4	Z4	X5	Y5	Z5	X6	Y6	Z6	X7	Y7	Z7	X8	Y8	Z8	X9	Y9	Z9	X10	Y10	Z10	X11	Y11	Z11	X12	Y12	Z12	X13	Y13	Z13	X14	Y14	Z14	X15	Y15	Z15	X16	Y16	Z16	X17	Y17	Z17	X18	Y18	Z18	X19	Y19	Z19	X20	Y20	Z20	X21	Y21	Z21	X22	Y22	Z22	X23	Y23	Z23	X24	Y24	Z24	X25	Y25	Z25	X26	Y26	Z26	X27	Y27	Z27	X28	Y28	Z28	X29	Y29	Z29	X30	Y30	Z30	X31	Y31	Z31	X32	Y32	Z32	X33	Y33	Z33	X34	Y34	Z34	X35	Y35	Z35	X36	Y36	Z36

917	7.63333	-874.39801	1023.79596	389.43219	-1094.66016	974.41400	478.31244	-913.40765	685.91089	500.23483	-904.20233	642.31927	497.46710	-972.65912	668.92401	496.09753	-955.99078	627.60986	493.85767	-879.07428	515.42920	486.96039	-907.74048	509.18182	349.79510	-809.73389	433.10971	482.34076	-800.36530	389.63312	478.93283	-867.66010	412.03192	476.49780	-849.27075	372.98514	472.58340	-666.34552	134.08749	426.93073	-696.94403	131.03902	342.50186	-603.73901	103.05518	363.68176	-790.31976	59.98116	476.33801	-845.10089	67.61488	419.89261	-830.85364	54.88319	374.15277	-873.23315	1010.38788	283.54462	-1097.72156	987.99078	192.59389	-1106.40320	689.89130	157.90977	-1129.07568	653.95453	159.14049	-1161.67432	717.78693	148.47763	-1178.52881	673.42432	153.48824	-1232.96106	553.34296	183.22299	-1234.69482	549.80096	301.97736	-1245.24451	332.77026	182.82143	-1265.11841	289.73282	189.00319	-1302.75842	352.11182	177.12302	-1313.00208	305.19299	180.06734	-1350.82898	114.48016	176.32161	0.00000	0.00000	0.00000	-1309.85327	44.81802	253.35074	-1518.38501	128.45033	282.25958	-1527.96899	161.14311	238.15559	-1505.22644	125.41359	164.81769
918	7.64167	-886.62390	1021.73199	388.06818	-1107.14697	972.88641	478.50909	-924.80487	684.86151	499.25415	-915.16449	641.33203	496.66330	-983.88080	667.44318	495.60953	-966.91766	626.22675	493.56628	-890.02307	514.03589	486.85397	-918.50012	507.15576	349.74780	-818.94446	433.34793	482.20999	-809.00806	389.70187	478.94650	-876.37646	410.92102	476.49124	-857.23456	372.24603	472.50885	-669.04022	137.34679	427.20575	-699.57172	133.64316	342.62128	-605.85742	107.59685	363.83954	-791.09180	60.15773	476.75934	-845.77893	67.17048	420.25873	-831.32812	54.87214	374.52710	-885.78674	1008.87067	281.94943	-1110.83716	987.52368	191.48021	-1117.97083	688.93195	157.63840	-1140.51294	652.80920	158.80893	-1173.47766	716.42822	148.47485	-1190.06604	671.84198	153.44670	-1243.93652	552.28625	182.29814	-1246.50037	549.04901	299.43954	-1253.96021	330.88538	181.21170	-1273.06885	287.55051	187.65079	-1311.97009	349.37027	176.59663	-1321.34094	302.64597	179.30739	-1356.42383	111.05067	176.09331	0.00000	0.00000	0.00000	-1312.02954	43.49626	252.45486	-1522.03870	121.20982	285.36407	-1533.78601	153.77104	241.66823	-1511.54944	117.92658	168.02348
919	7.65000	-899.07770	1019.85199	386.88727	-1119.51465	971.20032	477.49353	-936.34503	683.81311	498.15314	-926.63867	640.27954	495.91437	-995.42908	666.05566	495.18747	-978.25128	624.89746	493.32449	-901.69476	512.52832	486.85880	-929.87067	504.98843	349.79105	-828.55524	433.68158	482.35236	-816.71875	390.63730	479.36621	-885.41083	410.10287	476.90060	-865.85498	371.28622	473.12589	-672.11774	140.90181	427.21490	-702.76105	136.51286	342.62329	-608.48474	112.63636	363.69647	-792.18677	60.38972	477.20776	-846.51050	66.70044	420.66745	-831.99866	54.74760	374.96979	-898.42023	1007.70264	280.59070	-1123.85803	987.40662	190.54880	-1129.69006	687.48151	156.91319	-1151.18872	651.65759	157.82236	-1184.93604	715.27612	148.56013	-1201.15125	670.44971	153.16777	-1254.46509	550.90210	181.09848	-1257.68933	547.94226	296.65082	-1262.66956	329.80563	179.33170	-1281.00647	286.18997	186.07323	-1321.06494	347.33789	175.79276	-1329.59851	300.78339	178.26105	-1361.43274	108.30003	175.72717	0.00000	0.00000	0.00000	-1314.06848	42.94606	251.79819	-1526.54834	113.02789	287.02600	-1539.98291	144.11598	243.97601	-1517.01941	110.36749	169.75763
920	7.65833	-911.60004	1018.29279	385.85718	-1131.93896	969.66498	476.37311	-948.39709	682.75067	497.02917	-938.40570	639.24774	495.10239	-1007.30212	664.76874	494.84949	-990.03253	623.67157	493.19476	-913.97412	510.85803	487.04401	-942.18359	502.64343	349.99725	-839.12134	433.42703	482.21643	-826.20062	391.00266	479.36234	-895.15082	408.93793	477.04428	-874.64594	370.51093	473.11963	-675.59418	144.88651	426.97009	-706.39209	139.76410	342.44498	-611.49976	118.33652	363.20053	-793.06250	60.78780	477.67499	-847.46423	66.26826	421.10483	-832.86230	54.70918	375.43149	-910.88086	1006.65918	279.39761	-1136.60486	987.24011	189.75810	-1139.98669	687.02356	155.72023	-1161.98242	650.60278	156.58685	-1195.91870	714.10876	148.13075	-1211.72461	669.19568	152.45807	-1264.71667	548.99402	179.39491	-1268.09241	546.23053	294.32889	-1271.11548	329.63397	177.18011	-1288.41296	285.58609	184.21233	-1329.77515	345.95001	174.44217	-1337.47498	299.61072	176.74298	-1365.12280	106.02304	175.10931	0.00000	0.00000	0.00000	-1315.63147	42.93759	251.31541	-1529.29358	108.23563	287.26047	-1543.47424	139.38748	244.11623	-1519.98511	105.62807	169.79550
921	7.66667	-924.07343	1016.90631	384.92398	-1144.28284	968.23871	475.17996	-960.72058	681.70697	495.87790	-950.77148	638.23322	494.29932	-1019.70850	663.63544	494.51144	-1002.39288	622.48529	493.17050	-927.10632	509.07239	487.40970	-955.38922	500.26071	350.57983	-850.22510	433.51221	482.43054	-836.18262	391.45483	479.58163	-905.93915	407.16660	476.95071	-883.96356	369.62738	473.45886	-679.60394	149.31802	426.64868	-710.69202	143.39734	342.17502	-615.03583	124.71988	362.55270	-794.15094	61.37689	478.11319	-848.57538	65.93188	421.55191	-833.72644	54.65907	375.76993	-922.92145	1005.82721	278.37100	-1149.07935	987.08539	189.09146	-1150.93140	686.50696	154.01364	-1172.75671	649.94440	154.82390	-1206.95752	713.34894	147.07941	-1222.74097	668.39307	151.28523	-1275.24475	547.43286	177.10098	-1277.65393	543.66833	292.73132	-1278.59875	328.87134	175.57640	-1295.09583	284.58578	182.75917	-1337.60632	343.96808	172.14561	-1344.77808	297.85831	174.87979	-1368.15540	103.46819	173.98326	0.00000	0.00000	0.00000	-1316.92236	43.01373	251.21068	-1532.32446	103.20382	286.18320	-1546.90833	133.52744	242.80397	-1522.17847	100.82187	168.39108
